<svg xmlns="http://www.w3.org/2000/svg"  viewBox="0 0 64 64" width="256px" height="256px"><path d="M45.928,7H18.072C11.957,7,7,11.957,7,18.072v27.856C7,52.043,11.957,57,18.072,57h27.856C52.043,57,57,52.043,57,45.928	V18.072C57,11.957,52.043,7,45.928,7z M37.67,44.644c-1.702,0-4.09-1.045-4.09-3.493c0-2.448,1.522-3.881,3.672-4.299	c0.851-0.165,1.785-0.354,2.603-0.522c0.868-0.178,1.489-0.941,1.489-1.827l0-11.266c0-0.534-0.489-0.934-1.012-0.828l-13.153,2.655	c-0.526,0.106-0.904,0.568-0.904,1.105v16.056c0,2.3-0.347,5.724-5.469,5.724c-1.697,0-4.079-1.042-4.079-3.484	s1.519-3.871,3.662-4.288c0.919-0.179,1.935-0.385,2.797-0.561c0.735-0.151,1.258-0.8,1.253-1.55l-0.134-18.631	c-0.008-1.06,0.738-1.976,1.777-2.184l15.531-3.116c0.795-0.159,1.537,0.444,1.537,1.255c0.001,5.388,0.003,22.895,0.003,23.516	C43.153,41.211,42.805,44.644,37.67,44.644z"/></svg>